<svg width="675" height="120" viewBox="0 0 675 120" fill="none" xmlns="http://www.w3.org/2000/svg">
<path d="M51.6506 16.0254C58.4256 24.7254 73.4006 40.6004 83.4756 50.0504C83.6006 50.1754 83.9006 50.4754 83.9006 51.0504C83.9006 51.8254 83.2756 52.4254 82.5256 52.4254H74.5506C74.5006 52.8754 74.4506 53.3254 74.3756 53.8254C72.9756 65.5004 70.1506 88.8004 70.1506 88.8004C70.0756 89.4754 69.5506 90.0254 68.8756 90.0254H57.7756C57.7256 85.0754 57.5506 75.5004 57.5506 74.2254C57.5506 67.9504 57.8006 62.8754 58.2756 59.1504C58.3006 58.8504 58.3256 58.4254 58.3256 58.3004C58.3256 57.8504 58.0006 57.6504 57.3756 57.6504C56.0506 57.6504 52.9756 58.0754 51.8506 58.1004C51.7756 58.1004 51.7006 58.1004 51.6256 58.1004C51.5506 58.1004 51.4756 58.1004 51.4006 58.1004C50.3006 58.1004 47.2006 57.6504 45.8756 57.6504C45.2506 57.6504 44.9256 57.8754 44.9256 58.3004C44.9256 58.4004 44.9256 58.8504 44.9756 59.1504C45.4506 62.8754 45.7006 67.9254 45.7006 74.2254C45.7006 75.5004 45.5256 85.0754 45.4756 90.0254H34.3756C33.6756 90.0254 33.1756 89.4754 33.1006 88.8004C33.1006 88.8004 30.2506 65.5004 28.8756 53.8254C28.8256 53.3254 28.7756 52.8754 28.7006 52.4254H20.7256C19.9506 52.4254 19.3506 51.8004 19.3506 51.0504C19.3506 50.4504 19.6506 50.1754 19.7756 50.0504C29.8506 40.6004 44.8256 24.7004 51.6006 16.0254H51.6506Z" fill="white"/>
<path d="M51.6506 50.5754C55.8618 50.5754 59.2756 47.1616 59.2756 42.9504C59.2756 38.7392 55.8618 35.3254 51.6506 35.3254C47.4395 35.3254 44.0256 38.7392 44.0256 42.9504C44.0256 47.1616 47.4395 50.5754 51.6506 50.5754Z" fill="#E50013"/>
<path d="M356.35 57.2756C357.175 57.2756 358.75 57.5506 361.15 58.1006C363.325 58.5006 364.875 58.9006 365.825 59.2006C366.2 59.3256 366.475 59.4756 366.375 59.7006C366.35 59.7756 366.275 59.9756 366.2 60.3756C365.55 64.4506 365.15 68.7256 365.15 73.2256C365.15 74.9506 365.25 77.5006 365.475 80.9006C365.7 84.3006 365.8 86.8506 365.8 88.5256C365.8 89.4256 365.4 89.8506 364.575 89.9756C361.8 90.2006 358.6 90.3006 355.1 90.3006C354.45 90.2756 354.325 89.9006 354.1 88.3506C353.925 87.0756 353.775 86.4006 353.6 86.3506C353.425 86.4506 353.2 86.6756 352.925 87.0256C350.35 89.5256 347.675 90.7506 344.8 90.7506C340.4 90.7506 336.775 89.0256 333.925 85.6256C331.2 82.4006 329.925 78.5006 329.975 74.0506C329.975 68.9256 331.375 64.8256 334.2 61.6506C337.05 58.3756 341.05 56.7006 346.125 56.7006C349.625 56.7006 352.375 57.9256 354.375 60.3756C354.5 60.5256 354.6 60.6256 354.7 60.6006C354.85 60.5506 355.025 60.0506 355.25 58.9756C355.55 57.6506 355.975 57.2506 356.3 57.2506L356.35 57.2756ZM371.45 58.6756C372.675 58.5756 374.525 58.3506 376.9 58.0006C380.4 57.2256 382.25 56.9006 382.35 56.9506C382.8 56.9006 383.075 57.6256 383.175 59.0756C383.275 60.3006 383.45 61.0256 383.725 61.2006C383.725 61.2006 384.55 60.4756 386.45 59.4256C388.625 58.2506 390.675 57.6506 392.7 57.6506C393.925 57.6506 394.55 57.9256 394.55 58.5506C394.55 59.1756 394.525 60.0506 394.375 61.2256C394.225 62.4506 394.15 63.4006 394.15 63.9506V66.4506C394.2 67.7756 394.2 68.6756 394.2 69.1256C394.2 70.0256 393.7 70.3006 392.75 70.4006C392.25 70.4506 391.75 70.4506 390.975 70.4006C390.075 70.3506 389.475 70.2256 389.025 70.2256C387.175 70.2256 385.9 70.5006 385.225 71.1256C384.55 71.6756 384.275 72.8506 384.325 74.6756C384.275 75.5756 384.275 77.0756 384.325 79.0756C384.325 81.0256 384.325 82.4756 384.375 83.4756C384.375 84.0756 384.45 85.0256 384.55 86.3006C384.65 87.5756 384.6 88.5756 384.6 89.2006C384.6 89.7006 384.3 90.0756 383.55 90.1006C382.5 90.1506 380.825 90.1506 378.6 90.1506C376.375 90.1506 374.75 90.1006 373.475 89.9756C372.7 89.8756 372.35 89.5256 372.425 88.9256C372.375 87.1006 372.375 84.4256 372.425 80.9256V72.8006C372.375 67.5756 371.875 63.2256 370.975 59.8006C370.925 59.6256 370.925 59.5256 370.925 59.4006C370.925 59.0756 371.1 58.8506 371.425 58.7256L371.45 58.6756ZM424.55 60.6256C427.5 63.7506 429 67.4756 429 71.8006C429 74.0756 428.275 75.3506 426.825 75.7006C426.6 75.7506 424.325 75.9756 419.925 76.4256C417.25 76.7506 413.35 77.1006 408.1 77.4756C408.375 78.9256 409.275 80.0256 410.875 80.8006C412.2 81.4756 413.725 81.7506 415.4 81.7506C417.35 81.7506 419.375 81.3506 421.3 80.1256C422.125 79.6006 422.9 79.0506 423.775 78.5756C423.875 78.5256 423.975 78.5256 424.05 78.5756C424.5 78.9256 425.25 80.0256 426.25 81.8756C427.3 83.9256 427.875 85.2006 427.875 85.7756C427.875 85.9506 427.7 86.2256 427.375 86.6006C424.7 89.5006 420.4 91.0006 414.675 91.0006C409.325 91.0006 405.025 89.4506 401.8 86.3256C398.45 83.2006 396.775 79.0506 396.85 73.7506C396.8 68.5756 398.3 64.3506 401.3 61.1256C404.375 57.7256 408.5 56.0006 413.55 56.0006C417.85 55.9006 421.525 57.4506 424.525 60.5506L424.55 60.6256ZM451.575 56.0756C452.85 56.0756 454.025 56.4756 454.975 57.3006C455.925 58.0756 456.425 59.0756 456.425 60.3006C456.425 63.2006 454.8 64.7006 451.575 64.7006C450.25 64.7006 449.125 64.3756 448.225 63.6506C447.225 62.8256 446.675 61.7506 446.675 60.3256C446.625 59.1006 447.125 58.0506 448.225 57.2756C449.175 56.5006 450.275 56.1006 451.575 56.1006V56.0756ZM469.8 59.2256C470.2 59.2506 470.35 59.3256 470.35 59.6256C470.35 60.3006 470.4 61.3006 470.3 62.6256C470.2 63.9506 470.075 64.9006 470.075 65.6256C470.075 66.4506 470.3 66.8506 470.8 66.8506C471.425 66.8006 472.3 66.8006 473.475 66.8006C474.6 66.7506 475.475 66.7506 476.15 66.7506C476.475 66.7506 476.65 66.8506 476.65 67.1506C476.65 67.5506 476.65 68.1006 476.6 68.8756C476.5 69.6506 476.425 70.2006 476.425 70.6006V72.3256C476.425 73.1006 476.45 73.6506 476.475 74.1006C476.475 74.4256 476.25 74.6006 475.75 74.6006H474.125C473.3 74.5506 472.725 74.5506 472.4 74.5506H470.475C470.475 74.5506 470.3 74.6006 470.25 74.7256C470.2 74.9006 470.225 75.2506 470.25 75.6506C470.275 76.0506 470.25 76.6006 470.25 77.4256V79.0506C470.25 80.4506 470.3 81.4756 470.65 82.0506C471.075 82.8256 472.05 83.1756 473.325 83.1006C473.775 83.0756 474.325 82.9256 475.1 82.7756C475.825 82.6006 476.325 82.5506 476.65 82.5506C477.05 82.5506 477.325 82.7256 477.325 83.1006C477.325 83.6006 477.225 84.3256 477.1 85.3756C477 86.3256 476.95 87.1006 476.925 87.5506C476.9 88.0506 476.8 88.3006 476.7 88.4506C476.625 88.5506 476.425 88.7256 475.975 88.9506C473.8 90.1256 471.4 90.7256 468.85 90.7756C464.125 90.7756 461.725 89.0006 461.725 85.3756C461.725 84.2756 461.775 82.6006 461.9 80.3756C461.95 78.2006 461.95 76.6006 461.95 75.5256C461.95 74.7506 461.55 74.4256 460.725 74.4256H460C459.325 74.4256 459.2 74.2006 459.1 73.7506C459.05 73.5256 459.05 73.1506 459.1 72.6506C459.15 72.0506 459.15 71.6506 459.15 71.3756C459.15 70.9756 459.125 70.4756 459.1 69.7506C459.075 69.0256 459.075 68.5256 459.1 68.2006C459.125 67.8006 459.475 67.4756 460.725 67.5256C461.275 67.5256 461.55 67.4756 461.625 67.2006C461.725 66.5256 461.8 65.5256 461.8 64.2006C461.8 64.2006 461.65 61.9006 461.625 61.1506C461.575 59.2006 461.8 58.4006 462.175 58.3256C462.55 58.2506 463.225 58.3756 464.025 58.5506C464.95 58.7756 465.65 58.8256 465.975 58.8756C466.85 59.0006 468.075 59.1256 469.825 59.2756L469.8 59.2256ZM455.875 66.6756C456.275 66.6756 456.475 66.8756 456.475 67.2006C456.475 67.2506 456.475 67.4006 456.45 67.6756C456.05 70.8506 455.9 74.5756 455.9 78.8506C455.9 80.0256 455.9 81.8006 455.95 84.2006C456 86.6006 456 88.3756 456 89.5506C455.95 89.8756 455.725 90.1006 455.275 90.2256C454.725 90.3256 453.5 90.4006 451.55 90.4006C449.6 90.4006 448.275 90.3256 447.75 90.2256C447.35 90.1506 447.25 90.1006 447.15 89.9506C447.05 89.8256 447.05 89.5756 447.025 89.1506C447 88.0256 446.975 86.3256 447.025 84.0256C447.075 81.7006 447.125 79.9756 447.2 78.8506C447.2 74.1756 447.025 70.4506 446.65 67.6756C446.6 67.3506 446.6 67.1756 446.6 67.1256C446.6 66.7256 446.825 66.6256 447.275 66.6256C447.775 66.6256 448.5 66.6756 449.45 66.8006C450.325 66.9006 452.8 66.8756 453.75 66.8006C454.7 66.7256 455.425 66.6506 455.925 66.7006L455.875 66.6756ZM417.25 69.7506C417.25 68.3506 416.725 67.1506 415.8 66.2006C414.825 65.1756 413.675 64.6256 412.3 64.5756C410.925 64.5256 409.675 65.1006 408.725 66.3006C407.875 67.4006 407.45 68.7006 407.45 70.2006C407.45 70.8006 407.775 71.1006 408.4 71.1506C410.025 71.1006 412.575 70.8256 416.1 70.2506C416.925 70.1506 417.275 69.9756 417.275 69.7506H417.25ZM352.625 68.8006C351.4 67.5256 349.85 66.8506 347.95 66.8506C346.05 66.8506 344.45 67.4506 343.275 68.6756C342.1 69.8506 341.5 71.4006 341.5 73.3506C341.55 75.1756 342.225 76.7506 343.45 78.0256C344.675 79.3006 346.175 79.9756 347.975 79.9756C349.875 79.9756 351.425 79.3756 352.6 78.1506C353.825 76.9256 354.45 75.3256 354.45 73.3756C354.45 71.5506 353.9 69.9756 352.675 68.8256L352.625 68.8006ZM78.7747 59.0006C79.2247 58.7756 80.0997 58.6006 81.4997 58.5006C83.1247 58.3256 84.1247 58.2256 84.3997 58.1756C84.6747 58.1256 85.5747 57.9006 87.1247 57.4506C88.1247 57.1256 89.0247 56.9506 89.7497 56.9506C90.1497 56.9506 90.3747 57.7256 90.4247 59.2756C90.4747 60.8256 90.5997 61.6006 90.7497 61.6006C90.9747 61.5006 91.2497 61.3256 91.5747 61.1006C93.5247 59.5506 95.0747 58.4756 96.2497 57.9256C97.9747 57.0256 99.8747 56.6506 101.825 56.6506C103.875 56.6506 105.725 57.1006 107.35 58.0506C109.125 59.0506 110.3 60.5506 110.925 62.4506C112.05 60.8256 113.65 59.4506 115.775 58.3256C117.825 57.2756 119.85 56.7006 121.85 56.7006C124.75 56.7006 127.2 57.4256 129.1 58.8256C131.225 60.3256 132.275 62.5006 132.275 65.3756C132.275 66.4756 132.275 68.2756 132.225 70.7256C132.125 73.1256 132.05 74.9006 132.05 76.0756C132.05 77.4756 132.1 79.5756 132.225 82.4256C132.275 85.2006 132.275 87.3256 132.275 88.7756C132.275 89.6006 131.95 90.0506 131.325 90.1756C130.6 90.2256 128.925 90.2256 126.3 90.2256C123.675 90.2256 121.85 90.1756 121.175 90.0506C120.5 89.9506 120.225 89.3756 120.225 88.4256C120.225 87.4256 120.225 85.8756 120.275 83.8006C120.325 81.7506 120.325 80.2506 120.325 79.3006C120.325 75.3006 120.325 72.4506 120.275 70.8006C120.1 68.1256 118.825 66.8506 116.475 66.9006C115.475 66.9006 114.45 67.4006 113.4 68.3006C112.35 69.2006 111.725 70.0756 111.625 71.2006C111.525 72.1006 111.525 74.8756 111.575 79.3756C111.575 80.3756 111.6 82.0006 111.625 84.1506C111.65 86.3006 111.625 87.8756 111.625 89.0006C111.625 89.7256 111.35 90.0506 110.725 90.0506H100.575C99.8997 90.0506 99.6247 89.6006 99.6247 88.6506C99.6247 87.6006 99.6247 85.9756 99.6747 83.8756C99.7247 81.7756 99.7247 80.3256 99.7247 79.2506C99.7247 78.3506 99.6747 77.1256 99.6747 75.4756V71.7506C99.6747 68.5256 98.4497 66.9006 96.0497 66.9006C95.0497 66.8506 93.9247 67.2256 92.8247 68.0006C91.5997 68.8256 90.9747 69.6756 90.9747 70.6256C90.9247 72.6756 90.9247 75.7506 90.9747 79.7506V88.7506C90.9747 89.3006 90.9747 89.6256 90.8497 89.8006C90.7247 89.9756 90.3747 90.0256 89.7997 90.0756C88.8497 90.1506 87.2247 90.1256 85.1247 90.1256C83.7247 90.1256 82.1247 90.0756 80.3247 89.9506C79.7747 89.9006 79.5747 89.8506 79.4497 89.7006C79.2747 89.5256 79.2247 89.2256 79.2247 88.6756V72.7256C79.2247 69.0006 78.9997 64.8256 78.4997 60.2756C78.3997 59.4256 78.3497 59.1756 78.7247 59.0006H78.7747ZM147.05 57.4506C148.125 57.1256 149 56.9006 149.725 56.9506C150.275 57.0006 150.375 57.7256 150.4 59.2756C150.425 60.8256 150.45 61.6006 150.625 61.6006C150.85 61.5006 151.125 61.3256 151.45 61.1006C153.45 59.5506 155.075 58.4756 156.25 57.9256C157.925 57.0256 159.825 56.6506 161.825 56.6506C163.825 56.6506 165.675 57.1006 167.35 58.0506C169.125 59.0506 170.3 60.5506 170.925 62.4506C172.05 60.8256 173.65 59.4506 175.775 58.3256C177.825 57.2756 179.85 56.7006 181.85 56.7006C184.75 56.7006 187.15 57.4256 188.975 58.8256C191.1 60.3256 192.15 62.5006 192.15 65.3756C192.15 66.4756 192.15 68.2756 192.1 70.7256C192.05 73.1256 192.05 74.9006 192.05 76.0756C192.05 77.4756 192.05 79.5756 192.1 82.4256C192.15 85.2006 192.15 87.3256 192.15 88.7756C192.15 89.6006 191.825 90.0506 191.2 90.1756C190.475 90.2256 188.85 90.2256 186.25 90.2256C183.65 90.2256 181.8 90.1756 181.125 90.0506C180.4 89.9506 180.125 89.3756 180.175 88.4256C180.175 87.4256 180.175 85.8756 180.225 83.8006C180.275 81.7506 180.375 80.2506 180.4 79.3006C180.5 75.3006 180.3 72.4506 180.175 70.8006C180.075 68.1256 178.85 66.8506 176.45 66.9006C175.4 66.9006 174.275 67.3506 173.225 68.3006C172.225 69.1256 171.675 70.0756 171.6 71.2006C171.5 72.1006 171.425 74.8756 171.425 79.3756C171.425 80.3756 171.6 87.8756 171.6 89.0006C171.6 89.7256 171.325 90.0506 170.7 90.0506H160.5C159.875 90.0506 159.7 89.6006 159.675 88.6506C159.625 87.4256 159.625 85.9756 159.675 83.8756C159.725 81.8256 159.775 80.3256 159.725 79.2506C159.7 78.3506 159.625 72.5756 159.675 71.7506C159.675 68.5256 158.45 66.9006 156.05 66.9006C155.05 66.8506 153.925 67.2256 152.825 68.0006C151.6 68.8256 150.975 69.6756 150.975 70.6256V88.7506C150.975 89.3006 150.975 89.7006 150.8 89.8506C150.65 89.9756 150.3 90.0256 149.85 90.0756C148.8 90.1756 147.125 90.1256 145 90.1256C143.6 90.1256 142 90.0756 140.2 89.9506C139.65 89.9006 139.3 89.8506 139.25 89.7256C139.15 89.5506 139.175 89.2256 139.2 88.6756C139.275 86.9506 139.2 84.2756 139.2 80.7256V72.7256C139.2 69.0006 139.2 64.8006 138.475 60.2756C138.425 60.0006 138.425 59.8256 138.425 59.7256C138.4 59.3256 138.475 59.1256 138.825 59.0006C139.325 58.7756 140.275 58.6006 141.675 58.5006C143.3 58.3256 144.25 58.2006 144.575 58.1506C144.825 58.1006 145.525 57.9256 147.1 57.4506H147.05ZM226.075 61.1756C229.2 64.3006 230.75 68.4006 230.75 73.4756C230.75 78.5506 229.2 82.7006 226.125 85.8756C222.95 89.0506 218.825 90.6506 213.7 90.7256C208.8 90.7256 204.725 89.1006 201.55 85.9506C198.375 82.8256 196.825 78.8256 196.875 74.0006C196.875 68.7756 198.375 64.5506 201.4 61.3756C204.4 58.1506 208.525 56.5256 213.725 56.5256C218.85 56.4756 222.925 58.0256 226.1 61.2006L226.075 61.1756ZM241 42.1506C243.4 41.9256 245.35 41.8256 246.85 41.8256C247.25 41.8256 247.55 42.1256 247.525 42.8756C247.475 43.7756 247.15 49.2756 247.125 49.8256C247.05 52.0006 246.9 55.0006 246.9 58.9006C246.9 59.5756 247.075 59.9006 247.45 59.9506C247.675 59.9506 247.9 59.9006 248.125 59.7256C250.075 57.5506 252.7 56.5006 255.975 56.5006C260.825 56.5006 264.675 58.1756 267.4 61.5006C269.975 64.5006 271.2 68.5506 271.2 73.6256C271.2 78.2506 269.875 82.2006 267.25 85.3506C264.35 88.6756 260.575 90.3506 256 90.3506C252.65 90.3506 249.75 89.5756 247.875 87.5256C247.7 87.3256 247.6 87.2006 247.475 87.2006C247.25 87.2006 247.075 87.6506 246.925 88.4756C246.7 89.3756 246.625 89.8006 246.2 89.8756C245.8 89.9756 242.625 90.0506 236.625 90.1006C235.225 90.0506 234.5 89.7756 234.5 89.2006C234.5 89.1506 234.5 88.9756 234.55 88.7006C235 85.1506 235.225 78.4256 235.225 68.4506C235.225 58.4756 234.9 50.6006 234.275 43.6006L234.225 43.2006C234.225 42.8006 234.55 42.6506 235.275 42.6506C235.6 42.6506 237.55 42.4756 241.025 42.1506H241ZM276 58.1256C276.675 58.0756 277.675 58.1256 279 58.3006C280.225 58.4006 281.175 58.4756 281.85 58.5256C282.475 58.5256 283.4 58.4756 284.7 58.3506C286.025 58.2506 287.05 58.1756 287.7 58.1756C288.25 58.1756 288.525 58.4006 288.525 58.8506V59.5256C287.975 63.8506 287.7 68.8756 287.7 74.6006C287.7 76.2756 287.75 78.7756 287.75 82.0506C287.8 85.2256 287.85 87.6006 287.925 89.2756C287.925 89.7256 287.65 90.0006 287.025 90.1006C286.25 90.2006 284.575 90.2756 281.9 90.2756C279.225 90.2756 277.45 90.2256 276.725 90.1006C276.2 90.0006 276 89.9256 275.9 89.7006C275.825 89.5256 275.8 89.2756 275.8 88.6506C275.8 87.1506 275.85 84.8756 275.85 81.7506C275.9 78.5756 275.95 76.2006 276.025 74.6256C275.975 68.3506 275.7 63.2756 275.2 59.5506C275.15 59.1506 275.15 58.9506 275.15 58.8756C275.15 58.3256 275.475 58.1006 276.05 58.1006L276 58.1256ZM293.6 43.7256C293.65 43.1756 294 42.9006 294.575 42.9006H306.5C307.1 42.9006 307.425 43.2006 307.375 43.7506C307.375 43.8756 307.35 44.3006 307.35 44.3006C306.675 53.9256 306.35 62.4256 306.35 69.8756C306.35 75.9256 306.4 80.6006 306.4 83.9006C306.4 84.4506 306.4 85.3506 306.45 86.5756C306.5 87.6756 306.55 88.5756 306.625 89.2506C306.575 89.7006 306.3 89.9756 305.725 90.0756C304.725 90.2506 302.95 90.3006 300.375 90.3006C297.6 90.3006 295.85 90.2506 295.075 90.0756C294.575 89.9756 294.3 89.6756 294.25 89.1756V87.7256C294.25 85.7256 294.25 82.7756 294.3 78.8256C294.35 74.8256 294.4 71.8756 294.475 69.9256V57.0756C294.425 52.1756 294.05 47.9756 293.65 44.4006C293.6 44.0256 293.625 43.8756 293.65 43.7256H293.6ZM319.125 58.5006C319.8 58.5256 320.75 58.4506 322.025 58.3256C323.3 58.2006 324.3 58.1506 324.925 58.1506C325.475 58.1506 325.75 58.3756 325.75 58.8256C325.75 58.8756 325.75 59.1006 325.7 59.5006C325.2 63.8256 324.975 68.8506 324.975 74.5756C324.975 76.2506 325.025 78.7506 325.15 82.0256C325.2 85.2006 325.2 87.5756 325.2 89.2506C325.2 89.7006 324.925 89.9756 324.3 90.0756C323.525 90.1756 321.85 90.2506 319.175 90.2506C316.5 90.2506 314.725 90.2256 314 90.0756C313.5 89.9756 313.225 89.9006 313.1 89.6756C313.05 89.5756 313.05 89.2256 313.05 88.6256C313.05 87.1256 313.1 84.8506 313.225 81.7256C313.275 78.5506 313.275 76.1756 313.275 74.6006C313.225 68.3256 312.95 63.2506 312.45 59.5256C312.4 59.1256 312.4 58.9256 312.4 58.8506C312.45 58.4006 312.675 58.1506 313.275 58.1506C313.95 58.1006 314.875 58.2006 316.175 58.3256C317.475 58.4506 318.525 58.4756 319.125 58.5006ZM252.875 79.9756C254.775 79.9756 256.275 79.3006 257.4 78.0256C258.4 76.8006 258.95 75.2006 258.95 73.2506C258.95 71.4256 258.4 69.8506 257.225 68.5756C256.05 67.3006 254.55 66.6756 252.775 66.7506C250.875 66.7006 249.375 67.3006 248.325 68.5756C247.275 69.8006 246.7 71.4006 246.775 73.3506C246.725 75.3006 247.225 76.9006 248.325 78.1256C249.425 79.3506 251 79.9506 252.9 79.9506L252.875 79.9756ZM218.1 68.8506C216.975 67.4506 215.525 66.8006 213.8 66.8506C212.025 66.8006 210.575 67.4506 209.4 68.8506C208.35 70.1256 207.775 71.6756 207.775 73.4756C207.775 75.2756 208.325 76.8756 209.4 78.1506C210.525 79.4756 212.025 80.2006 213.8 80.2756C215.525 80.2256 216.975 79.5006 218.1 78.1506C219.15 76.8756 219.775 75.3256 219.825 73.4756C219.775 71.7006 219.2 70.2006 218.1 68.8506Z" fill="white"/>
<path d="M442.5 86.2006C442.45 89.0256 440.825 90.4756 437.65 90.4756C436.2 90.4256 434.975 90.0256 434.075 89.3756C433.125 88.5506 432.625 87.5506 432.675 86.2006C432.675 84.9256 433.225 83.8756 434.3 83.0256C435.2 82.2506 436.25 81.9256 437.65 81.9256C438.875 81.9256 440 82.3256 441 83.0256C441.95 83.8506 442.45 84.8506 442.5 86.2006Z" fill="white"/>
<path d="M281.85 52.5756C286.02 52.5756 289.4 49.1953 289.4 45.0256C289.4 40.8558 286.02 37.4756 281.85 37.4756C277.68 37.4756 274.3 40.8558 274.3 45.0256C274.3 49.1953 277.68 52.5756 281.85 52.5756Z" fill="white"/>
<path d="M319.076 52.5756C323.246 52.5756 326.626 49.1953 326.626 45.0256C326.626 40.8558 323.246 37.4756 319.076 37.4756C314.906 37.4756 311.526 40.8558 311.526 45.0256C311.526 49.1953 314.906 52.5756 319.076 52.5756Z" fill="white"/>
<path d="M537.625 89.9245V53.4495L521.4 81.7745H518.625L502.35 53.4495V89.9245H497.925V45.1245H502.475L519.95 75.7995L537.55 45.1245H542.025V89.9245H537.6H537.625Z" fill="white"/>
<path d="M552.075 76.4002V57.1502H556.375V75.6252C556.375 79.3502 557.025 82.1502 558.3 83.9752C559.575 85.8252 561.475 86.7502 564 86.7502C565.675 86.7502 567.325 86.3752 568.9 85.6502C570.475 84.9252 571.875 83.8752 573.1 82.5002C574.325 81.1502 575.25 79.5502 575.875 77.7502V57.1252H580.175V84.7252C580.175 85.3252 580.3 85.7502 580.55 86.0252C580.8 86.3002 581.175 86.4502 581.7 86.5002V89.9002C581.2 89.9502 580.8 89.9752 580.5 90.0002C580.2 90.0002 579.925 90.0252 579.675 90.0252C578.825 89.9502 578.1 89.6002 577.5 89.0252C576.9 88.4252 576.575 87.7252 576.525 86.8752L576.4 82.4752C574.975 85.0002 573.025 86.9502 570.575 88.3752C568.125 89.8002 565.45 90.5252 562.6 90.5252C559.15 90.5252 556.55 89.3252 554.775 86.9502C553 84.5502 552.125 81.0502 552.125 76.3752L552.075 76.4002Z" fill="white"/>
<path d="M605.649 88.5998C605.324 88.7248 604.799 88.9498 604.074 89.2998C603.349 89.6498 602.499 89.9248 601.474 90.1748C600.474 90.4248 599.374 90.5498 598.199 90.5498C597.024 90.5498 595.824 90.3248 594.749 89.8498C593.674 89.3748 592.824 88.6748 592.199 87.7248C591.574 86.7748 591.249 85.5998 591.249 84.1998V60.5498H586.699V57.1498H591.249V46.0498H595.549V57.1498H603.124V60.5498H595.549V82.9998C595.624 84.1748 596.074 85.0748 596.849 85.6748C597.624 86.2748 598.524 86.5748 599.524 86.5748C600.699 86.5748 601.774 86.3748 602.749 85.9748C603.724 85.5748 604.299 85.2998 604.524 85.1248L605.649 88.5998Z" fill="white"/>
<path d="M610.701 76.4002V57.1502H615.001V75.6252C615.001 79.3502 615.651 82.1502 616.926 83.9752C618.201 85.8252 620.101 86.7502 622.626 86.7502C624.301 86.7502 625.951 86.3752 627.526 85.6502C629.101 84.9252 630.501 83.8752 631.726 82.5002C632.951 81.1502 633.876 79.5502 634.501 77.7502V57.1252H638.801V84.7252C638.801 85.3252 638.926 85.7502 639.176 86.0252C639.426 86.3002 639.801 86.4502 640.326 86.5002V89.9002C639.826 89.9502 639.426 89.9752 639.126 90.0002C638.826 90.0002 638.551 90.0252 638.301 90.0252C637.451 89.9502 636.726 89.6002 636.126 89.0252C635.526 88.4252 635.201 87.7252 635.151 86.8752L635.026 82.4752C633.601 85.0002 631.651 86.9502 629.201 88.3752C626.751 89.8002 624.076 90.5252 621.226 90.5252C617.776 90.5252 615.176 89.3252 613.401 86.9502C611.626 84.5502 610.751 81.0502 610.751 76.3752L610.701 76.4002Z" fill="white"/>
<path d="M648.525 50.1745V43.8745H652.825V50.1745H648.525ZM648.525 89.9245V57.0495H652.825V89.9245H648.525Z" fill="white"/>
</svg>
